<svg id="visual" viewBox="0 0 900 600" width="900" height="600" xmlns="http://www.w3.org/2000/svg" xmlns:xlink="http://www.w3.org/1999/xlink" version="1.1"><path d="M0 178L11.5 165.8C23 153.7 46 129.3 69 129.8C92 130.3 115 155.7 138.2 146.8C161.3 138 184.7 95 207.8 71.2C231 47.3 254 42.7 277 66.2C300 89.7 323 141.3 346 144.5C369 147.7 392 102.3 415.2 79.2C438.3 56 461.7 55 484.8 66.8C508 78.7 531 103.3 554 114.3C577 125.3 600 122.7 623 107.7C646 92.7 669 65.3 692.2 53C715.3 40.7 738.7 43.3 761.8 70.2C785 97 808 148 831 170.7C854 193.3 877 187.7 888.5 184.8L900 182L900 0L888.5 0C877 0 854 0 831 0C808 0 785 0 761.8 0C738.7 0 715.3 0 692.2 0C669 0 646 0 623 0C600 0 577 0 554 0C531 0 508 0 484.8 0C461.7 0 438.3 0 415.2 0C392 0 369 0 346 0C323 0 300 0 277 0C254 0 231 0 207.8 0C184.7 0 161.3 0 138.2 0C115 0 92 0 69 0C46 0 23 0 11.5 0L0 0Z" fill="#1e3a8a" stroke-linecap="round" stroke-linejoin="miter"></path></svg>